<?xml version="1.0" encoding="UTF-8"?> <svg xmlns="http://www.w3.org/2000/svg" xmlns:v="https://vecta.io/nano" width="89" height="151" fill="none"><g clip-path="url(#A)" fill="#3d4442"><path d="M25.985 43.541h18.391c4.474 0 10.374 0 13.42 1.862 3.341 2.001 5.965 5.641 5.965 10.651 0 5.428-2.835 9.503-7.529 11.429v.148c6.25 1.288 9.656 6.002 9.656 12.291 0 7.502-5.33 14.653-15.409 14.653H25.985V43.541zm6.738 21.933h13.503c7.667 0 10.797-2.788 10.797-8.151 0-7.076-4.971-8.077-10.797-8.077H32.723v16.227zm0 23.368h16.909c5.817 0 9.518-3.575 9.518-9.142 0-6.65-5.329-8.503-11.009-8.503H32.723v17.644zm50.423-19.774c0 21.433-17.268 38.809-38.577 38.809-21.3 0-38.568-17.376-38.568-38.809S23.269 30.26 44.569 30.26c21.309.009 38.577 17.376 38.577 38.808zM44.569 24.341C20.038 24.341.147 44.356.147 69.04s19.891 44.699 44.422 44.699C69.108 113.739 89 93.723 89 69.04S69.108 24.341 44.569 24.341zm44.339 98.836H.239v5.863h88.669v-5.863zm-2.771-6.456l.313-.009a1.08 1.08 0 0 0 .258-.056.44.44 0 0 0 .184-.157.53.53 0 0 0 .064-.287c0-.102-.018-.195-.055-.25a.32.32 0 0 0-.156-.139.7.7 0 0 0-.221-.075c-.083-.009-.156-.009-.249-.009h-.635v.991h.497v-.009zm.212-1.38c.368 0 .635.074.819.222.175.148.267.371.267.676 0 .288-.083.482-.23.621-.156.13-.35.204-.589.232l.884 1.37h-.515l-.847-1.343h-.506v1.343h-.488v-3.112h1.206v-.009zm-2.182 2.445a2.02 2.02 0 0 0 .46.732 2.14 2.14 0 0 0 .69.481c.258.112.552.167.856.167.313 0 .598-.055.856-.167a2.14 2.14 0 0 0 .69-.481c.193-.204.35-.445.451-.732a2.41 2.41 0 0 0 .175-.898 2.24 2.24 0 0 0-.175-.899c-.111-.278-.267-.518-.451-.722a2.18 2.18 0 0 0-.69-.472 2.16 2.16 0 0 0-1.712 0c-.267.12-.506.277-.69.472a2.09 2.09 0 0 0-.46.722c-.11.278-.166.565-.166.899a2.35 2.35 0 0 0 .166.898zm-.433-1.954c.138-.324.331-.593.571-.834s.525-.417.847-.555a2.58 2.58 0 0 1 1.022-.204c.368 0 .709.065 1.04.204.313.138.598.314.828.555.239.241.442.519.571.834a2.52 2.52 0 0 1 .212 1.056c0 .38-.064.731-.212 1.056-.138.333-.331.611-.571.852a2.54 2.54 0 0 1-.828.565 2.82 2.82 0 0 1-1.04.194c-.359 0-.7-.065-1.022-.194-.322-.139-.607-.315-.847-.565a2.62 2.62 0 0 1-.571-.852c-.147-.325-.203-.677-.203-1.056-.009-.371.046-.732.203-1.056zM10.981 4.687a3.43 3.43 0 0 0-.782-.889 3.67 3.67 0 0 0-1.068-.602 3.73 3.73 0 0 0-1.243-.213c-.792 0-1.464.157-2.025.463a3.78 3.78 0 0 0-1.344 1.241 5.51 5.51 0 0 0-.755 1.778 8.88 8.88 0 0 0-.239 2.056c0 .676.074 1.334.239 1.973a5.31 5.31 0 0 0 .755 1.732 3.83 3.83 0 0 0 1.344 1.232c.552.306 1.224.463 2.025.463 1.077 0 1.924-.333 2.522-.991.607-.667.976-1.537 1.114-2.621h3.415c-.092 1.01-.322 1.917-.7 2.732s-.865 1.51-1.482 2.075c-.617.574-1.335 1.01-2.154 1.315-.819.296-1.73.454-2.715.454-1.224 0-2.329-.213-3.314-.648-.985-.426-1.804-1.019-2.485-1.778-.672-.75-1.187-1.639-1.546-2.658C.184 10.79 0 9.697 0 8.521c0-1.204.184-2.325.543-3.362.359-1.028.874-1.936 1.546-2.695.672-.769 1.5-1.371 2.485-1.806C5.55.222 6.655 0 7.888 0c.884 0 1.721.13 2.504.38.782.259 1.491.63 2.108 1.121a6.12 6.12 0 0 1 1.537 1.815c.405.722.663 1.556.764 2.482h-3.415a2.84 2.84 0 0 0-.405-1.111zm8.551 9.03c.479.463 1.169.704 2.062.704.644 0 1.197-.157 1.666-.482.46-.324.746-.667.856-1.028h2.807c-.451 1.399-1.141 2.408-2.071 3.01s-2.053.908-3.369.908c-.911 0-1.74-.148-2.467-.445-.736-.296-1.353-.713-1.869-1.25-.506-.537-.902-1.185-1.178-1.945-.276-.75-.414-1.584-.414-2.482 0-.871.138-1.686.423-2.436s.69-1.408 1.215-1.954a5.75 5.75 0 0 1 1.878-1.297c.727-.315 1.528-.472 2.412-.472.985 0 1.85.195 2.587.574a5.14 5.14 0 0 1 1.804 1.547 6.51 6.51 0 0 1 1.022 2.214c.212.825.285 1.695.221 2.603h-8.376c.055 1.009.313 1.769.792 2.232zm3.608-6.15c-.387-.417-.966-.63-1.74-.63-.506 0-.93.083-1.27.259a2.49 2.49 0 0 0-.81.639c-.203.259-.341.528-.423.815s-.129.537-.147.769h5.182c-.147-.815-.414-1.426-.792-1.852zm8.45-2.732v2.167h.046a3.92 3.92 0 0 1 .608-1.01 3.93 3.93 0 0 1 .874-.787c.331-.213.681-.389 1.059-.509a3.82 3.82 0 0 1 1.169-.176 2.54 2.54 0 0 1 .7.111v2.982a5.32 5.32 0 0 0-.543-.074l-.608-.037c-.58 0-1.077.102-1.482.296s-.727.463-.976.806-.423.732-.525 1.186-.157.945-.157 1.473v5.27H28.57V4.835h3.019zm12.988 0v2.149H42.24v5.789c0 .546.092.908.267 1.084s.543.269 1.077.269l.516-.018.469-.065v2.482a7.99 7.99 0 0 1-.902.093l-.966.028a9.47 9.47 0 0 1-1.399-.102c-.442-.065-.828-.195-1.169-.398-.34-.195-.598-.472-.801-.834-.193-.361-.294-.834-.294-1.426v-6.9h-1.933V4.835h1.933V1.334h3.185v3.501h2.356zm1.85-1.806V.38h3.185v2.649h-3.185zm3.194 1.806v11.68h-3.185V4.835h3.185zm1.261 2.149V4.835h1.905v-.908c0-1.037.322-1.889.967-2.556S55.375.38 56.673.38l.856.037.828.056v2.399a9.32 9.32 0 0 0-1.16-.065c-.433 0-.746.102-.93.306s-.276.546-.276 1.028v.704h2.2v2.149h-2.2v9.54h-3.194v-9.55h-1.915zm9.463-3.955V.38h3.185v2.649h-3.185zm3.185 1.806v11.68h-3.185V4.835h3.185zm5.035 8.882c.479.463 1.169.704 2.062.704.644 0 1.197-.157 1.666-.482.46-.324.746-.667.856-1.028h2.807c-.451 1.399-1.141 2.408-2.062 3.01-.93.602-2.053.908-3.369.908-.911 0-1.74-.148-2.467-.445-.736-.296-1.353-.713-1.869-1.25-.506-.537-.902-1.185-1.178-1.945-.276-.75-.414-1.584-.414-2.482 0-.871.147-1.686.423-2.436.285-.75.69-1.408 1.215-1.954a5.75 5.75 0 0 1 1.878-1.297c.727-.315 1.528-.472 2.412-.472.985 0 1.85.195 2.587.574a5.14 5.14 0 0 1 1.804 1.547 6.51 6.51 0 0 1 1.022 2.214c.212.825.285 1.695.23 2.603h-8.376c.028 1.009.294 1.769.773 2.232zm3.599-6.15c-.377-.417-.966-.63-1.74-.63-.506 0-.93.083-1.27.259s-.608.389-.81.639c-.203.259-.34.528-.423.815a3.87 3.87 0 0 0-.147.769h5.182c-.138-.815-.405-1.426-.792-1.852zm13.668 7.456c-.377.63-.865 1.093-1.473 1.371s-1.289.417-2.053.417c-.865 0-1.629-.167-2.292-.509s-1.206-.797-1.629-1.38-.746-1.25-.966-2.001-.322-1.537-.322-2.353c0-.787.111-1.538.322-2.269a5.96 5.96 0 0 1 .966-1.936 4.81 4.81 0 0 1 1.602-1.343c.644-.343 1.39-.509 2.246-.509a4.47 4.47 0 0 1 1.961.445 3.4 3.4 0 0 1 1.473 1.297h.046V.38h3.185v16.135H85.88v-1.491h-.046zm-.138-5.77a3.41 3.41 0 0 0-.46-1.176 2.58 2.58 0 0 0-.847-.824c-.34-.213-.782-.315-1.298-.315s-.966.102-1.326.315a2.58 2.58 0 0 0-.865.834 3.89 3.89 0 0 0-.469 1.186c-.101.445-.147.908-.147 1.389a6.1 6.1 0 0 0 .156 1.352c.101.454.276.852.506 1.213a2.88 2.88 0 0 0 .874.861c.35.222.773.324 1.27.324.525 0 .957-.102 1.316-.315.35-.213.635-.491.847-.852.212-.352.359-.759.451-1.204.092-.454.138-.917.138-1.399s-.055-.945-.147-1.389zM8.017 140.562c-.156-1.13-1.233-1.992-2.467-1.992-2.228 0-3.065 1.908-3.065 3.9 0 1.889.838 3.797 3.065 3.797 1.519 0 2.375-1.047 2.559-2.547h2.412c-.258 2.834-2.2 4.65-4.97 4.65-3.498 0-5.55-2.631-5.55-5.9 0-3.372 2.053-6.002 5.55-6.002 2.485 0 4.565 1.463 4.869 4.094H8.017zm7.686-.908c2.577 0 4.234 1.713 4.234 4.344 0 2.612-1.657 4.325-4.234 4.325-2.559 0-4.225-1.723-4.225-4.325 0-2.631 1.657-4.344 4.225-4.344zm0 6.965c1.537 0 1.988-1.325 1.988-2.621 0-1.325-.46-2.64-1.988-2.64-1.519 0-1.979 1.325-1.979 2.64 0 1.306.46 2.621 1.979 2.621zm5.624-6.761h2.135v1.528h.037c.405-1.038 1.519-1.751 2.614-1.751a1.69 1.69 0 0 1 .488.074v2.103a4.34 4.34 0 0 0-.81-.074c-1.648 0-2.218 1.195-2.218 2.639v3.705h-2.246v-8.224zm6.14.018h2.136v1.047h.028c.534-.871 1.418-1.269 2.43-1.269 2.568 0 3.719 2.084 3.719 4.418 0 2.195-1.197 4.251-3.59 4.251-.976 0-1.914-.426-2.448-1.241h-.037V151h-2.246v-11.124h.009zm6.075 4.14c0-1.306-.525-2.658-1.961-2.658-1.473 0-1.942 1.325-1.942 2.658s.506 2.612 1.961 2.612c1.464-.009 1.942-1.278 1.942-2.612zm7.17-4.362c2.577 0 4.243 1.713 4.243 4.344 0 2.612-1.666 4.325-4.243 4.325-2.559 0-4.216-1.723-4.216-4.325 0-2.631 1.657-4.344 4.216-4.344zm0 6.965c1.537 0 1.997-1.325 1.997-2.621 0-1.325-.46-2.64-1.997-2.64-1.519 0-1.979 1.325-1.979 2.64 0 1.306.46 2.621 1.979 2.621zm5.624-6.761h2.135v1.528h.037c.405-1.038 1.519-1.751 2.605-1.751a1.69 1.69 0 0 1 .488.074v2.103c-.203-.046-.534-.074-.81-.074-1.648 0-2.218 1.195-2.218 2.639v3.705h-2.246v-8.224h.009zm5.928 2.547c.129-2.121 2.007-2.751 3.847-2.751 1.629 0 3.59.361 3.59 2.334v4.279c0 .75.074 1.491.285 1.834h-2.283c-.074-.26-.147-.528-.156-.797-.709.751-1.749 1.019-2.752 1.019-1.546 0-2.78-.778-2.78-2.464 0-1.861 1.39-2.306 2.78-2.5 1.381-.204 2.66-.158 2.66-1.084 0-.973-.672-1.111-1.454-1.111-.856 0-1.408.351-1.491 1.241h-2.246zm5.191 1.667c-.387.333-1.169.352-1.869.481-.7.139-1.325.38-1.325 1.214 0 .843.644 1.046 1.381 1.046 1.749 0 1.822-1.398 1.822-1.889v-.852h-.009zm6.785-4.196h1.648v1.51H64.24v4.075c0 .769.193.954.948.954a3.6 3.6 0 0 0 .7-.064v1.769c-.377.064-.874.083-1.316.083-1.371 0-2.577-.324-2.577-1.954v-4.854h-1.362v-1.509h1.362v-2.464h2.246v2.454zm5.577-1.269h-2.246v-1.861h2.246v1.861zm-2.246 1.269h2.246v8.225h-2.246v-8.225zm7.981-.222c2.577 0 4.243 1.713 4.243 4.344 0 2.612-1.666 4.325-4.243 4.325-2.559 0-4.216-1.723-4.216-4.325-.009-2.631 1.657-4.344 4.216-4.344zm0 6.965c1.537 0 1.997-1.325 1.997-2.621 0-1.325-.46-2.64-1.997-2.64-1.519 0-1.979 1.325-1.979 2.64 0 1.306.46 2.621 1.979 2.621zm5.688-6.743h2.135v1.149h.046c.571-.927 1.546-1.371 2.504-1.371 2.384 0 2.992 1.352 2.992 3.39v5.057h-2.246v-4.65c0-1.352-.396-2.019-1.436-2.019-1.224 0-1.74.686-1.74 2.362v4.316h-2.246v-8.234h-.009z"></path></g><defs><clipPath id="A"><path fill="#fff" d="M0 0h89v151H0z"></path></clipPath></defs></svg> 